<svg id="Ebene_1" data-name="Ebene 1" xmlns="http://www.w3.org/2000/svg" width="16" height="16" viewBox="0 0 16 16"><defs><style>.cls-1{fill:#4d4d4d;stroke:#fff;stroke-miterlimit:10;}.cls-2{fill:#0098d6;}.cls-3{fill:#fff;}</style></defs><title>export</title><path class="cls-1" d="M15.58,13.64h0v0C15.58,15,12.19,16,8,16S.42,15,.42,13.66v0h0V11.27C.46,10,3.84,9,8,9s7.54,1,7.58,2.31v2.37Z"/><path class="cls-1" d="M15.58,9.87h0v0c0,1.29-3.39,2.34-7.58,2.34S.42,11.19.42,9.9v0h0V7.51C.46,6.23,3.84,5.2,8,5.2s7.54,1,7.58,2.31V9.87Z"/><path class="cls-1" d="M15.58,6.33h0v0c0,1.29-3.39,2.34-7.58,2.34S.42,7.64.42,6.35v0h0V4C.46,2.68,3.84,1.65,8,1.65s7.54,1,7.58,2.31V6.33Z"/><ellipse class="cls-1" cx="8" cy="2.86" rx="7.58" ry="2.34"/><path class="cls-2" d="M9,14.42a.5.5,0,0,1-.24-.06.51.51,0,0,1-.26-.44v-2.1l-5.63,0a.47.47,0,0,1-.35-.15.5.5,0,0,1-.14-.35V9.55a.51.51,0,0,1,.5-.49l5.62,0V7a.55.55,0,0,1,.26-.44A.53.53,0,0,1,9,6.5a.5.5,0,0,1,.27.08l5.56,3.49a.5.5,0,0,1,0,.85L9.27,14.35A.48.48,0,0,1,9,14.42Z"/><path class="cls-3" d="M9,7l5.56,3.49L9,13.92V11.33l-6.12,0V9.56L9,9.59V7M9,6A1,1,0,0,0,8,7v1.6l-5.11,0h0a1,1,0,0,0-1,1v1.73a1,1,0,0,0,.28.71,1,1,0,0,0,.71.3l5.13,0v1.6a1,1,0,0,0,.51.87,1,1,0,0,0,.49.13,1,1,0,0,0,.52-.15l5.6-3.42a1,1,0,0,0,.47-.85,1,1,0,0,0-.46-.85L9.58,6.15A1,1,0,0,0,9,6Z"/></svg>